<svg width="32" height="32" viewBox="0 0 28 25" fill="#000000" xmlns="http://www.w3.org/2000/svg">
    <path d="M27.25 8.015C26.9684 7.69591 26.6222 7.44037 26.2342 7.26537C25.8463 7.09037 25.4256 6.99991 25 7H18V5C18 3.67392 17.4732 2.40215 16.5355 1.46447C15.5979 0.526784 14.3261 2.56378e-07 13 2.56378e-07C12.8142 -0.00013275 12.6321 0.0514889 12.474 0.149077C12.3159 0.246665 12.1881 0.386361 12.105 0.5525L7.3825 10H2C1.46957 10 0.960859 10.2107 0.585786 10.5858C0.210714 10.9609 0 11.4696 0 12V23C0 23.5304 0.210714 24.0391 0.585786 24.4142C0.960859 24.7893 1.46957 25 2 25H23.5C24.2309 25.0003 24.9367 24.7337 25.485 24.2503C26.0332 23.767 26.3861 23.1001 26.4775 22.375L27.9775 10.375C28.0307 9.95253 27.9933 9.52358 27.8679 9.11667C27.7424 8.70976 27.5318 8.33421 27.25 8.015Z" fill="black"/>
</svg>
